<svg width="64" height="64" viewBox="0 0 64 64" fill="none" xmlns="http://www.w3.org/2000/svg">
<path fill-rule="evenodd" clip-rule="evenodd" d="M56 23.3923L37.3888 4.78113C34.2646 1.65694 29.1993 1.65694 26.0751 4.78113L8 22.8563V61.562H26.6667V45.562C26.6667 42.6165 29.0545 40.2287 32 40.2287C34.9455 40.2287 37.3333 42.6165 37.3333 45.562V61.562H56V23.3923ZM29.8464 8.55237L13.3333 25.0654V56.2287H21.3333V45.562C21.3333 39.671 26.109 34.8953 32 34.8953C37.891 34.8953 42.6667 39.671 42.6667 45.562V56.2287H50.6667V25.6014L33.6176 8.55237C32.5762 7.51097 30.8878 7.51097 29.8464 8.55237Z" fill="black"/>
</svg>
