<svg width="64" height="64" viewBox="0 0 64 64" fill="none" xmlns="http://www.w3.org/2000/svg">
<path d="M16.6007 12.8296C15.5593 11.7882 13.8709 11.7882 12.8295 12.8296C11.7881 13.871 11.7881 15.5595 12.8295 16.6009L28.2288 32.0002L12.8297 47.3993C11.7883 48.4407 11.7883 50.1291 12.8297 51.1705C13.8711 52.2119 15.5595 52.2119 16.6009 51.1705L32 35.7714L47.3992 51.1705C48.4406 52.2119 50.129 52.2119 51.1704 51.1705C52.2118 50.1291 52.2118 48.4407 51.1704 47.3993L35.7713 32.0002L51.1706 16.6009C52.212 15.5595 52.212 13.871 51.1706 12.8296C50.1292 11.7882 48.4407 11.7882 47.3993 12.8296L32 28.2289L16.6007 12.8296Z" fill="black"/>
</svg>
