<svg width="64" height="64" viewBox="0 0 64 64" fill="none" xmlns="http://www.w3.org/2000/svg">
<path d="M5.33337 15.9999C5.33337 14.5272 6.52728 13.3333 8.00004 13.3333H56C57.4728 13.3333 58.6667 14.5272 58.6667 15.9999C58.6667 17.4727 57.4728 18.6666 56 18.6666H8.00004C6.52728 18.6666 5.33337 17.4727 5.33337 15.9999Z" fill="black"/>
<path d="M5.33337 32.0859C5.33337 30.6131 6.52728 29.4192 8.00004 29.4192H56C57.4728 29.4192 58.6667 30.6131 58.6667 32.0859C58.6667 33.5586 57.4728 34.7525 56 34.7525H8.00004C6.52728 34.7525 5.33337 33.5586 5.33337 32.0859Z" fill="black"/>
<path d="M8.00004 45.5051C6.52728 45.5051 5.33337 46.699 5.33337 48.1718C5.33337 49.6446 6.52728 50.8385 8.00004 50.8385H56C57.4728 50.8385 58.6667 49.6446 58.6667 48.1718C58.6667 46.699 57.4728 45.5051 56 45.5051H8.00004Z" fill="black"/>
</svg>
