<svg width="64" height="64" viewBox="0 0 64 64" fill="none" xmlns="http://www.w3.org/2000/svg">
<path d="M32.2585 41.1959C32.0995 41.1 31.9005 41.1 31.7416 41.1959L22.9853 46.4823C22.607 46.7107 22.1402 46.3721 22.2398 45.9416L24.5456 35.9731C24.5873 35.7927 24.5259 35.6041 24.3861 35.4827L16.6548 28.7761C16.3208 28.4864 16.4997 27.9374 16.9404 27.9002L27.1393 27.0387C27.3243 27.023 27.4853 26.9062 27.5577 26.7353L31.5396 17.3278C31.7118 16.921 32.2883 16.921 32.4605 17.3278L36.4424 26.7353C36.5148 26.9062 36.6758 27.023 36.8608 27.0387L47.0597 27.9002C47.5003 27.9374 47.6793 28.4864 47.3452 28.7761L39.614 35.4827C39.4742 35.6041 39.4128 35.7927 39.4545 35.9731L41.7603 45.9416C41.8599 46.3721 41.393 46.7107 41.0148 46.4823L32.2585 41.1959ZM57.771 25.4159C58.1053 25.1263 57.9266 24.5771 57.4859 24.5397L39.7938 23.0387C39.609 23.0231 39.4481 22.9064 39.3757 22.7356L32.4604 6.41944C32.2881 6.01292 31.712 6.01292 31.5397 6.41944L24.6244 22.7356C24.552 22.9064 24.3911 23.0231 24.2063 23.0387L6.5127 24.5399C6.0722 24.5772 5.89336 25.1259 6.22723 25.4157L19.6394 37.0559C19.7792 37.1773 19.8405 37.3661 19.7987 37.5465L15.7872 54.8477C15.6874 55.2783 16.1543 55.6171 16.5326 55.3888L31.7417 46.2092C31.9006 46.1133 32.0995 46.1133 32.2584 46.2092L47.4655 55.3876C47.8442 55.6162 48.3113 55.2767 48.2108 54.8459L44.1753 37.5472C44.1331 37.3664 44.1945 37.1772 44.3348 37.0556L57.771 25.4159Z" fill="black"/>
</svg>
