<svg width="64" height="64" viewBox="0 0 64 64" fill="none" xmlns="http://www.w3.org/2000/svg">
<path d="M31.7417 46.2093C31.9006 46.1134 32.0995 46.1134 32.2584 46.2093L47.4655 55.3877C47.8442 55.6162 48.3113 55.2767 48.2108 54.846L44.1753 37.5472C44.1331 37.3665 44.1945 37.1772 44.3348 37.0557L57.7727 25.4144C58.1068 25.125 57.9286 24.5763 57.4883 24.5384L39.7931 23.0125C39.6087 22.9966 39.4481 22.8801 39.3758 22.7097L32.4603 6.41761C32.2879 6.01143 31.7122 6.01143 31.5398 6.41761L24.6243 22.7097C24.5519 22.8801 24.3914 22.9966 24.207 23.0125L6.51029 24.5385C6.07017 24.5764 5.89189 25.1247 6.22552 25.4143L19.6394 37.056C19.7792 37.1774 19.8405 37.3661 19.7987 37.5466L15.7872 54.8478C15.6874 55.2783 16.1543 55.6172 16.5326 55.3888L31.7417 46.2093Z" fill="black"/>
</svg>
